<svg width="15" height="11" viewBox="0 0 15 11" fill="none" xmlns="http://www.w3.org/2000/svg">
<path d="M13.9463 1.89809L5.48459 10.3598C5.41089 10.4337 5.32332 10.4924 5.22689 10.5325C5.13047 10.5725 5.02708 10.5931 4.92268 10.5931C4.81827 10.5931 4.71489 10.5725 4.61846 10.5325C4.52204 10.4924 4.43447 10.4337 4.36077 10.3598L0.658776 6.6578C0.584985 6.58401 0.526451 6.49641 0.486515 6.39999C0.44658 6.30358 0.426025 6.20025 0.426025 6.09589C0.426025 5.99153 0.44658 5.8882 0.486515 5.79179C0.526451 5.69537 0.584985 5.60777 0.658776 5.53398C0.732567 5.46019 0.82017 5.40166 0.916582 5.36172C1.01299 5.32178 1.11633 5.30123 1.22069 5.30123C1.32504 5.30123 1.42838 5.32178 1.52479 5.36172C1.6212 5.40166 1.7088 5.46019 1.7826 5.53398L4.92334 8.67472L12.8238 0.775597C12.9728 0.626569 13.1749 0.542847 13.3857 0.542847C13.5965 0.542847 13.7986 0.626569 13.9476 0.775597C14.0966 0.924625 14.1804 1.12675 14.1804 1.33751C14.1804 1.54826 14.0966 1.75039 13.9476 1.89942L13.9463 1.89809Z" fill="white"/>
</svg>
